<svg width="24" height="24" viewBox="0 0 24 24" fill="none" xmlns="http://www.w3.org/2000/svg">
<path d="M2.00049 11H22.0005V20C22.0005 20.2652 21.8951 20.5196 21.7076 20.7071C21.5201 20.8946 21.2657 21 21.0005 21H3.00049C2.73527 21 2.48092 20.8946 2.29338 20.7071C2.10585 20.5196 2.00049 20.2652 2.00049 20V11ZM17.0005 3H21.0005C21.2657 3 21.5201 3.10536 21.7076 3.29289C21.8951 3.48043 22.0005 3.73478 22.0005 4V9H2.00049V4C2.00049 3.73478 2.10585 3.48043 2.29338 3.29289C2.48092 3.10536 2.73527 3 3.00049 3H7.00049V1H9.00049V3H15.0005V1H17.0005V3Z" fill="#4564ED"/>
</svg>
