<svg width="10" height="17" viewBox="0 0 10 17" fill="none" xmlns="http://www.w3.org/2000/svg">
<path fill-rule="evenodd" clip-rule="evenodd" d="M8.68183 15.7218C8.57583 15.8288 8.44967 15.9138 8.31064 15.9717C8.17161 16.0297 8.02247 16.0596 7.87183 16.0596C7.72119 16.0596 7.57205 16.0297 7.43302 15.9717C7.29399 15.9138 7.16783 15.8288 7.06183 15.7218L0.411833 9.06176C0.148025 8.7958 0 8.43637 0 8.06176C0 7.68716 0.148025 7.32773 0.411833 7.06176L7.06183 0.411763C7.16427 0.289408 7.29105 0.189712 7.43411 0.119016C7.57718 0.0483191 7.73338 0.00817062 7.8928 0.00112237C8.05222 -0.00592587 8.21136 0.0202809 8.36011 0.0780763C8.50885 0.135872 8.64393 0.22399 8.75677 0.336827C8.86961 0.449664 8.95772 0.584749 9.01552 0.733491C9.07332 0.882232 9.09952 1.04138 9.09247 1.2008C9.08543 1.36021 9.04528 1.51642 8.97458 1.65948C8.90388 1.80254 8.80419 1.92933 8.68183 2.03177L2.63183 8.03177L8.68183 14.0818C8.79192 14.1881 8.87947 14.3155 8.93926 14.4564C8.99906 14.5972 9.02987 14.7487 9.02987 14.9018C9.02987 15.0548 8.99906 15.2063 8.93926 15.3472C8.87947 15.488 8.79192 15.6154 8.68183 15.7218Z" fill="#333333"/>
</svg>
