<svg width="36" height="36" viewBox="0 0 36 36" fill="none" xmlns="http://www.w3.org/2000/svg">
<circle cx="18" cy="18" r="18" fill="#EFF4FF"/>
<path d="M14 8V11" stroke="#4564ED" stroke-width="1.5" stroke-miterlimit="10" stroke-linecap="round" stroke-linejoin="round"/>
<path d="M22 8V11" stroke="#4564ED" stroke-width="1.5" stroke-miterlimit="10" stroke-linecap="round" stroke-linejoin="round"/>
<path d="M9.5 15.0898H26.5" stroke="#4564ED" stroke-width="1.5" stroke-miterlimit="10" stroke-linecap="round" stroke-linejoin="round"/>
<path d="M27 14.5V23C27 26 25.5 28 22 28H14C10.5 28 9 26 9 23V14.5C9 11.5 10.5 9.5 14 9.5H22C25.5 9.5 27 11.5 27 14.5Z" stroke="#4564ED" stroke-width="1.5" stroke-miterlimit="10" stroke-linecap="round" stroke-linejoin="round"/>
<path d="M21.6947 19.7002H21.7037" stroke="#4564ED" stroke-width="2" stroke-linecap="round" stroke-linejoin="round"/>
<path d="M21.6947 22.7002H21.7037" stroke="#4564ED" stroke-width="2" stroke-linecap="round" stroke-linejoin="round"/>
<path d="M17.9955 19.7002H18.0045" stroke="#4564ED" stroke-width="2" stroke-linecap="round" stroke-linejoin="round"/>
<path d="M17.9955 22.7002H18.0045" stroke="#4564ED" stroke-width="2" stroke-linecap="round" stroke-linejoin="round"/>
<path d="M14.2943 19.7002H14.3033" stroke="#4564ED" stroke-width="2" stroke-linecap="round" stroke-linejoin="round"/>
<path d="M14.2943 22.7002H14.3033" stroke="#4564ED" stroke-width="2" stroke-linecap="round" stroke-linejoin="round"/>
</svg>
