<svg width="21" height="21" viewBox="0 0 21 21" fill="none" xmlns="http://www.w3.org/2000/svg">
<circle cx="10.5" cy="10.5" r="10.5" fill="#4564ED"/>
<path fill-rule="evenodd" clip-rule="evenodd" d="M15.9584 5.76957C15.8465 5.5728 15.6999 5.41655 15.5397 5.2738C15.3893 5.13876 15.1983 4.99023 14.9745 4.81661L14.9417 4.79153C14.7199 4.61792 14.527 4.46745 14.3611 4.35557C14.1855 4.23597 13.9984 4.1318 13.7804 4.07007C13.2866 3.93311 12.76 3.99869 12.3144 4.2514C12.1176 4.36328 11.9614 4.50989 11.8186 4.67C11.6836 4.82047 11.5331 5.01145 11.3614 5.23522L6.79534 11.0841C6.78377 11.0995 6.77219 11.113 6.76062 11.1285C6.54649 11.4024 6.38445 11.6107 6.26678 11.848C6.1684 12.0486 6.0951 12.2589 6.05073 12.4788C5.99864 12.7373 5.99864 12.9997 6.00057 13.3488C6.00057 13.3662 6.00057 13.3855 6.00057 13.4048L6.00443 14.7937C6.00443 14.7995 6.00443 14.8053 6.00443 14.811C6.00443 14.9094 6.00443 15.0194 6.01408 15.1158C6.02372 15.2219 6.0488 15.3859 6.15104 15.5479C6.27257 15.7428 6.45776 15.8875 6.67574 15.9588C6.85707 16.0167 7.02104 16.0013 7.12714 15.9858C7.22166 15.9704 7.32969 15.9453 7.42421 15.9202L8.78999 15.5827C8.80735 15.5788 8.82664 15.573 8.844 15.5692C9.18158 15.4862 9.43815 15.4226 9.67542 15.3087C9.87604 15.2123 10.0651 15.0908 10.2348 14.9461C10.4355 14.7744 10.5975 14.568 10.8116 14.2921C10.8232 14.2767 10.8348 14.2632 10.8464 14.2478L15.4144 8.39694C15.588 8.1751 15.7384 7.98219 15.8503 7.81629C15.9699 7.64075 16.0741 7.45363 16.1358 7.23565C16.2766 6.74181 16.2111 6.21518 15.9584 5.76957ZM9.83746 13.4568C9.57318 13.7944 9.49409 13.8909 9.40728 13.9661C9.3224 14.0375 9.22788 14.0992 9.12757 14.1474C9.0234 14.1976 8.90187 14.2304 8.48712 14.3326L7.29304 14.6278L7.28918 13.397C7.28725 12.9688 7.29111 12.8434 7.31426 12.7315C7.33548 12.6216 7.37213 12.5155 7.42229 12.4171C7.47437 12.3129 7.54767 12.2126 7.81195 11.875L11.5755 7.05432L13.603 8.63614L9.83746 13.4568ZM14.8993 6.89227C14.8916 6.91928 14.8704 6.97522 14.7874 7.09675C14.7025 7.22407 14.5791 7.38033 14.39 7.62339L12.3626 6.04156C12.5516 5.7985 12.6751 5.64225 12.7773 5.52843C12.8757 5.41848 12.9239 5.38568 12.949 5.37218C13.0976 5.2873 13.2731 5.26608 13.4371 5.31238C13.4641 5.3201 13.52 5.34131 13.6416 5.42426C13.7689 5.50914 13.9251 5.6326 14.1682 5.82165C14.4112 6.0107 14.5675 6.13416 14.6813 6.2364C14.7913 6.33478 14.8241 6.383 14.8376 6.40808C14.9244 6.55083 14.9456 6.72638 14.8993 6.89227Z" fill="#F5F5F5"/>
</svg>
