<svg width="41" height="40" viewBox="0 0 41 40" fill="none" xmlns="http://www.w3.org/2000/svg">
<rect x="0.75" width="40" height="40" rx="8" fill="url(#paint0_linear_8718_3988)"/>
<path d="M21.541 24.5733H22.2993C23.0577 24.5733 23.6877 23.8966 23.6877 23.08C23.6877 22.065 23.326 21.8666 22.731 21.6566L21.5527 21.2483V24.5733H21.541Z" fill="white"/>
<path d="M20.6308 8.21669C14.1908 8.24003 8.97577 13.4784 8.9991 19.9184C9.02243 26.3584 14.2608 31.5734 20.7008 31.55C27.1408 31.5267 32.3558 26.2884 32.3324 19.8484C32.3091 13.4084 27.0708 8.20503 20.6308 8.21669ZM23.3024 20C24.2124 20.315 25.4374 20.9917 25.4374 23.08C25.4374 24.8767 24.0258 26.3234 22.2991 26.3234H21.5408V27C21.5408 27.4784 21.1441 27.875 20.6658 27.875C20.1874 27.875 19.7908 27.4784 19.7908 27V26.3234H19.3708C17.4574 26.3234 15.9058 24.7134 15.9058 22.73C15.9058 22.2517 16.3024 21.855 16.7808 21.855C17.2591 21.855 17.6558 22.2517 17.6558 22.73C17.6558 23.745 18.4258 24.5734 19.3708 24.5734H19.7908V20.63L18.0291 20C17.1191 19.685 15.8941 19.0084 15.8941 16.92C15.8941 15.1234 17.3058 13.6767 19.0324 13.6767H19.7908V13C19.7908 12.5217 20.1874 12.125 20.6658 12.125C21.1441 12.125 21.5408 12.5217 21.5408 13V13.6767H21.9608C23.8741 13.6767 25.4258 15.2867 25.4258 17.27C25.4258 17.7484 25.0291 18.145 24.5508 18.145C24.0724 18.145 23.6758 17.7484 23.6758 17.27C23.6758 16.255 22.9058 15.4267 21.9608 15.4267H21.5408V19.37L23.3024 20Z" fill="white"/>
<path d="M17.6562 16.9316C17.6562 17.9466 18.0179 18.145 18.6129 18.355L19.7913 18.7633V15.4266H19.0329C18.2746 15.4266 17.6562 16.1033 17.6562 16.9316Z" fill="white"/>
<defs>
<linearGradient id="paint0_linear_8718_3988" x1="20.75" y1="0" x2="20.75" y2="40" gradientUnits="userSpaceOnUse">
<stop stop-color="#FF8F4B"/>
<stop offset="1" stop-color="#FF5C00"/>
</linearGradient>
</defs>
</svg>
