<svg width="36" height="36" viewBox="0 0 36 36" fill="none" xmlns="http://www.w3.org/2000/svg">
<circle cx="18" cy="17.9993" r="18" fill="#EFF4FF"/>
<path d="M27.6599 16.4393L26.6799 20.6193C25.8399 24.2293 24.1799 25.6893 21.0599 25.3893C20.5599 25.3493 20.0199 25.2593 19.4399 25.1193L17.7599 24.7193C13.5899 23.7293 12.2999 21.6693 13.2799 17.4893L14.2599 13.2993C14.4599 12.4493 14.6999 11.7093 14.9999 11.0993C16.1699 8.67928 18.1599 8.02928 21.4999 8.81928L23.1699 9.20928C27.3599 10.1893 28.6399 12.2593 27.6599 16.4393Z" stroke="#4564ED" stroke-width="1.5" stroke-linecap="round" stroke-linejoin="round"/>
<path d="M21.0601 25.3892C20.4401 25.8092 19.6601 26.1592 18.7101 26.4692L17.1301 26.9892C13.1601 28.2692 11.0701 27.1992 9.7801 23.2292L8.5001 19.2792C7.2201 15.3092 8.2801 13.2092 12.2501 11.9292L13.8301 11.4092C14.2401 11.2792 14.6301 11.1692 15.0001 11.0992C14.7001 11.7092 14.4601 12.4492 14.2601 13.2992L13.2801 17.4892C12.3001 21.6692 13.5901 23.7292 17.7601 24.7192L19.4401 25.1192C20.0201 25.2592 20.5601 25.3492 21.0601 25.3892Z" stroke="#4564ED" stroke-width="1.5" stroke-linecap="round" stroke-linejoin="round"/>
<path d="M18.6399 14.5293L23.4899 15.7593" stroke="#4564ED" stroke-width="1.5" stroke-linecap="round" stroke-linejoin="round"/>
<path d="M17.6599 18.3993L20.5599 19.1393" stroke="#4564ED" stroke-width="1.5" stroke-linecap="round" stroke-linejoin="round"/>
</svg>
