<svg width="41" height="40" viewBox="0 0 41 40" fill="none" xmlns="http://www.w3.org/2000/svg">
<rect x="0.333344" width="40" height="40" rx="8" fill="url(#paint0_linear_4282_79769)"/>
<path d="M30.7969 22.0448C28.8544 20.9067 28.8544 19.0683 30.7969 17.9302C31.9228 17.2674 32.3063 15.8167 31.6506 14.6911L30.4133 12.5401C29.8566 11.5396 28.5946 11.2019 27.6048 11.7647L27.3697 11.9023C25.4396 13.0403 23.8435 12.1149 23.8435 9.83877L23.8435 9.56363C23.8435 8.42558 22.928 7.48762 21.7897 7.50012H19.3276C18.0285 7.48762 16.9768 8.56314 16.9644 9.86378C16.9644 12.1274 15.3931 13.0403 13.4506 11.9148C12.3371 11.2645 10.8895 11.6522 10.2338 12.7902L9.14502 14.6911C8.50165 15.8167 8.8852 17.2799 10.0111 17.9427C11.9536 19.0683 11.9536 20.9192 10.0111 22.0573C8.8852 22.7201 8.50165 24.1708 9.15739 25.2963L10.3946 27.4474C10.9514 28.4479 12.2134 28.7856 13.2032 28.2228L13.4383 28.0852C15.3684 26.9472 16.9644 27.8726 16.9644 30.1487V30.4239C16.9768 31.5744 17.9047 32.5124 19.0306 32.4999H21.4928C22.7919 32.5124 23.8435 31.4369 23.8435 30.1362C23.8435 27.8726 25.4272 26.9472 27.3697 28.0727C28.4832 28.723 29.9308 28.3353 30.5865 27.1973L31.6753 25.2963C32.3063 24.1583 31.9351 22.6951 30.8092 22.0448L30.7969 22.0448ZM25.7736 23.1203C25.0437 24.3834 23.9425 25.2838 22.6805 25.7841C22.6805 25.2338 22.6805 24.6835 22.6805 24.1333C22.6805 23.8581 22.7424 23.6831 22.9898 23.5205C25.6252 21.632 25.4891 17.6551 22.73 15.9543C22.6929 15.9293 22.6558 15.9042 22.6187 15.8917C22.198 15.6541 21.9134 15.8167 21.901 16.3044C21.901 17.2299 21.8887 18.1678 21.901 19.0933C21.901 19.3934 21.8144 19.456 21.5299 19.456C20.738 19.431 19.9586 19.4435 19.1667 19.456C18.9317 19.456 18.8822 19.3935 18.8822 19.1558C18.8945 18.2054 18.8822 17.2549 18.8822 16.3044C18.8822 15.8042 18.61 15.6541 18.1769 15.9042C15.3065 17.53 15.1333 21.7071 17.8676 23.583C18.0408 23.7081 18.1151 23.8206 18.1027 24.0332C18.1027 24.621 18.1027 25.2213 18.1027 25.8091C17.8305 25.6965 17.5583 25.5965 17.2985 25.4464C14.3415 23.7206 13.3145 19.8687 15.0343 16.8797C16.7417 13.8908 20.5524 12.8527 23.5095 14.5911C26.4665 16.3169 27.4934 20.1688 25.7736 23.1578V23.1203Z" fill="white"/>
<defs>
<linearGradient id="paint0_linear_4282_79769" x1="20.3333" y1="0" x2="20.3333" y2="40" gradientUnits="userSpaceOnUse">
<stop stop-color="#FF8F4B"/>
<stop offset="1" stop-color="#FF5C00"/>
</linearGradient>
</defs>
</svg>
