<svg width="24" height="24" viewBox="0 0 24 24" fill="none" xmlns="http://www.w3.org/2000/svg">
<path d="M20.25 6.5V10.075C18.8266 9.34785 17.2094 9.0904 15.6305 9.33962C14.0517 9.58884 12.5924 10.3319 11.4621 11.4621C10.3319 12.5924 9.58884 14.0517 9.33962 15.6305C9.0904 17.2094 9.34785 18.8266 10.075 20.25H4.4375C3.52582 20.25 2.65148 19.8878 2.00682 19.2432C1.36216 18.5985 1 17.7242 1 16.8125V6.5H20.25ZM16.8125 1C17.7242 1 18.5985 1.36216 19.2432 2.00682C19.8878 2.65148 20.25 3.52582 20.25 4.4375V5.125H1V4.4375C1 3.52582 1.36216 2.65148 2.00682 2.00682C2.65148 1.36216 3.52582 1 4.4375 1H16.8125ZM23 16.8125C23 18.4535 22.3481 20.0273 21.1877 21.1877C20.0273 22.3481 18.4535 23 16.8125 23C15.1715 23 13.5977 22.3481 12.4373 21.1877C11.2769 20.0273 10.625 18.4535 10.625 16.8125C10.625 15.1715 11.2769 13.5977 12.4373 12.4373C13.5977 11.2769 15.1715 10.625 16.8125 10.625C18.4535 10.625 20.0273 11.2769 21.1877 12.4373C22.3481 13.5977 23 15.1715 23 16.8125Z" fill="#4564ED"/>
<path d="M16.8125 13.9925H15.3125V17.6825L18.5025 19.5225L19.2525 18.2225L16.8125 16.8125V13.9925Z" fill="white"/>
</svg>
