<svg width="41" height="40" viewBox="0 0 41 40" fill="none" xmlns="http://www.w3.org/2000/svg">
<rect x="0.666626" width="40" height="40" rx="8" fill="url(#paint0_linear_4282_79780)"/>
<g clip-path="url(#clip0_4282_79780)">
<path d="M33.2942 18.5375C32.8858 17.3243 32.111 16.4594 30.7237 16.3813C30.4774 16.3693 30.4354 16.2252 30.3813 16.051C28.8918 11.4564 24.3513 8.41134 19.4023 9.09603C15.1681 9.67861 12.3453 12.111 10.9159 16.1471C10.8918 16.2131 10.8618 16.2852 10.8378 16.3393C10.6636 16.3573 10.5074 16.3633 10.3573 16.3933C9.32426 16.6336 8.57351 17.2642 8.17111 18.2131C7.35429 20.1471 7.51045 22.045 8.63357 23.8288C9.10204 24.5735 9.7627 25.1321 10.6996 25.1381C11.1141 25.1381 11.5345 25.042 11.9369 24.9279C12.6216 24.7417 12.8318 24.3933 12.7297 23.6906C12.5555 22.5014 12.3573 21.3122 12.1951 20.117C12.105 19.4564 11.9549 18.8137 12.039 18.1291C12.5375 14.099 15.9068 10.8678 19.9549 10.5615C23.7807 10.2732 27.2822 12.4294 28.7177 15.9909C29.1381 17.03 29.4444 18.105 29.2642 19.2582C29.1861 19.7867 29.1201 20.3212 29.024 20.8438C28.9219 21.4264 28.8618 22.027 28.6576 22.5735C28.6276 22.6456 28.5975 22.7237 28.5675 22.7957C28.5555 22.8197 28.5495 22.8438 28.5375 22.8618C28.5135 22.9098 28.4954 22.9639 28.4714 23.0119C28.4594 23.036 28.4474 23.06 28.4354 23.084C28.4114 23.1321 28.3873 23.1861 28.3633 23.2342C28.3513 23.2522 28.3453 23.2762 28.3333 23.2942C28.2972 23.3663 28.2612 23.4324 28.2252 23.4984C28.2252 23.5044 28.2192 23.5164 28.2132 23.5225C28.1831 23.5825 28.1471 23.6426 28.111 23.7026C28.099 23.7267 28.087 23.7447 28.075 23.7687C28.045 23.8167 28.021 23.8588 27.9909 23.9068C27.9789 23.9309 27.9609 23.9549 27.9489 23.9729C27.4984 24.6756 26.9339 25.3002 26.2732 25.8468C24.6996 27.1561 22.9038 27.8828 20.8318 27.8708C20.3032 27.8708 19.7807 27.8648 19.2522 27.8708C18.6816 27.8828 18.2672 28.3032 18.2492 28.8738C18.2492 29.066 18.2492 29.2582 18.2492 29.4444C18.2672 30.0149 18.6816 30.4474 19.2462 30.4534C20.1951 30.4654 21.1381 30.4654 22.087 30.4534C22.6396 30.4474 23.054 30.0209 23.078 29.4624C23.078 29.3663 23.078 29.2702 23.078 29.1621C23.1441 29.1381 23.1801 29.1261 23.2162 29.114C25.6606 28.4474 27.6246 27.09 29.078 25.0119C29.1201 24.9459 29.1621 24.8678 29.2041 24.7777C29.3123 24.8438 29.3903 24.8918 29.4144 24.9098C29.7687 25.1621 30.2732 25.1381 30.7056 25.1321C31.4864 25.114 32.075 24.6576 32.5135 24.051C33.7507 22.3513 33.9429 20.4774 33.2882 18.5255L33.2942 18.5375Z" fill="white"/>
<path d="M20.6276 26.042C16.988 26.018 14.1171 23.1171 14.063 19.5735C14.003 15.8618 16.9819 12.8768 20.6336 12.8828C24.2852 12.8828 27.1261 15.8017 27.2042 19.3032C27.2883 23.039 24.2973 26.03 20.6276 26.042Z" fill="white"/>
<path d="M20.7799 23.4612C20.9301 23.4371 21.1441 23.4311 21.3904 23.3711C22.015 23.2269 22.5495 22.9206 22.994 22.4582C23.2162 22.2299 23.2042 21.8816 22.9699 21.6894C22.7477 21.5092 22.4774 21.5272 22.2612 21.7374C21.5946 22.3861 20.8198 22.5903 19.9249 22.314C19.5585 22.1999 19.2642 21.9837 18.994 21.7134C18.7838 21.5092 18.4714 21.5152 18.2732 21.7134C18.075 21.9116 18.063 22.2299 18.2672 22.4341C18.9159 23.1008 19.7147 23.4371 20.7477 23.4612H20.7799Z" fill="#FF7322" stroke="#FF7322" stroke-width="0.4" stroke-miterlimit="10"/>
</g>
<defs>
<linearGradient id="paint0_linear_4282_79780" x1="20.6666" y1="0" x2="20.6666" y2="40" gradientUnits="userSpaceOnUse">
<stop stop-color="#FF8F4B"/>
<stop offset="1" stop-color="#FF5C00"/>
</linearGradient>
<clipPath id="clip0_4282_79780">
<rect width="26" height="21.4715" fill="white" transform="translate(7.66663 9)"/>
</clipPath>
</defs>
</svg>
