<svg width="41" height="40" viewBox="0 0 41 40" fill="none" xmlns="http://www.w3.org/2000/svg">
<rect x="0.25" width="40" height="40" rx="8" fill="url(#paint0_linear_10251_13365)"/>
<path d="M26.083 9.5H14.4163C10.9163 9.5 8.58301 11.25 8.58301 15.3333V23.5C8.58301 27.5833 10.9163 29.3333 14.4163 29.3333H18.5813C19.2697 29.3333 19.8297 28.7267 19.7363 28.0383C19.6197 27.21 19.643 26.3467 19.818 25.46C20.4363 22.4267 22.933 20.0117 25.9897 19.51C27.518 19.265 28.9763 19.475 30.2597 20.035C31.0413 20.3733 31.9163 19.8367 31.9163 18.985V15.3333C31.9163 11.25 29.583 9.5 26.083 9.5ZM26.6313 16.0217L22.9797 18.9383C22.2097 19.5567 21.2297 19.86 20.2497 19.86C19.2697 19.86 18.278 19.5567 17.5197 18.9383L13.868 16.0217C13.4947 15.7183 13.4363 15.17 13.728 14.785C14.0313 14.4117 14.5797 14.3417 14.953 14.645L18.6047 17.5617C19.4913 18.2733 20.9963 18.2733 21.883 17.5617L25.5347 14.645C25.908 14.3417 26.468 14.4 26.7597 14.785C27.063 15.17 27.0047 15.7183 26.6313 16.0217Z" fill="white"/>
<path d="M27.2503 21.1667C24.0303 21.1667 21.417 23.7684 21.417 27C21.417 30.22 24.0303 32.8334 27.2503 32.8334C30.482 32.8334 33.0837 30.22 33.0837 27C33.0837 23.7684 30.482 21.1667 27.2503 21.1667ZM29.642 26.475L29.2103 26.895L26.667 29.45C26.5503 29.555 26.3287 29.6717 26.1653 29.695L25.022 29.8584C24.6137 29.9167 24.322 29.625 24.3803 29.2167L24.5437 28.0734C24.567 27.91 24.672 27.6884 24.7887 27.5717L27.332 25.04L27.752 24.6084C28.032 24.3284 28.347 24.1417 28.6737 24.1417C28.9537 24.1417 29.2687 24.27 29.6187 24.6084C30.4003 25.3667 30.1553 25.9617 29.642 26.475Z" fill="white"/>
<defs>
<linearGradient id="paint0_linear_10251_13365" x1="20.25" y1="0" x2="20.25" y2="40" gradientUnits="userSpaceOnUse">
<stop stop-color="#FF8F4B"/>
<stop offset="1" stop-color="#FF5C00"/>
</linearGradient>
</defs>
</svg>
