<svg width="24" height="24" viewBox="0 0 24 24" fill="none" xmlns="http://www.w3.org/2000/svg">
<path d="M18.3515 2C18.9217 1.99993 19.4706 2.21632 19.8874 2.60543C20.3042 2.99454 20.5577 3.52736 20.5967 4.09621L20.6017 4.25023V19.7498C20.6018 20.32 20.3854 20.8689 19.9963 21.2857C19.6072 21.7025 19.0743 21.956 18.5055 21.995L18.3515 22H6.85032C6.28014 22.0001 5.73119 21.7837 5.31442 21.3946C4.89764 21.0055 4.64412 20.4726 4.6051 19.9038L4.6001 19.7498V4.25023C4.60003 3.68004 4.81641 3.13109 5.20553 2.71432C5.59464 2.29754 6.12746 2.04403 6.69631 2.005L6.85032 2H18.3515ZM8.35047 6.9935C8.15154 6.9935 7.96076 7.07253 7.82009 7.21319C7.67942 7.35386 7.6004 7.54464 7.6004 7.74357C7.6004 7.94251 7.67942 8.13329 7.82009 8.27396C7.96076 8.41462 8.15154 8.49365 8.35047 8.49365H16.8513C17.0503 8.49365 17.241 8.41462 17.3817 8.27396C17.5224 8.13329 17.6014 7.94251 17.6014 7.74357C17.6014 7.54464 17.5224 7.35386 17.3817 7.21319C17.241 7.07253 17.0503 6.9935 16.8513 6.9935H8.35047ZM7.6004 11.744C7.6004 12.158 7.93643 12.494 8.35047 12.494H16.8513C17.0503 12.494 17.241 12.415 17.3817 12.2744C17.5224 12.1337 17.6014 11.9429 17.6014 11.744C17.6014 11.545 17.5224 11.3543 17.3817 11.2136C17.241 11.0729 17.0503 10.9939 16.8513 10.9939H8.35047C8.15154 10.9939 7.96076 11.0729 7.82009 11.2136C7.67942 11.3543 7.6004 11.545 7.6004 11.744ZM8.35047 14.9943C8.15154 14.9943 7.96076 15.0733 7.82009 15.214C7.67942 15.3547 7.6004 15.5454 7.6004 15.7444C7.6004 15.9433 7.67942 16.1341 7.82009 16.2748C7.96076 16.4154 8.15154 16.4944 8.35047 16.4944H16.8513C17.0503 16.4944 17.241 16.4154 17.3817 16.2748C17.5224 16.1341 17.6014 15.9433 17.6014 15.7444C17.6014 15.5454 17.5224 15.3547 17.3817 15.214C17.241 15.0733 17.0503 14.9943 16.8513 14.9943H8.35047Z" fill="#4564ED"/>
</svg>
