<svg width="36" height="36" viewBox="0 0 36 36" fill="none" xmlns="http://www.w3.org/2000/svg">
<circle cx="18" cy="17.9993" r="18" fill="#EFF4FF"/>
<path d="M18.12 18.7792C18.05 18.7692 17.96 18.7692 17.88 18.7792C16.12 18.7192 14.72 17.2792 14.72 15.5092C14.72 13.6992 16.18 12.2292 18 12.2292C19.81 12.2292 21.28 13.6992 21.28 15.5092C21.27 17.2792 19.88 18.7192 18.12 18.7792Z" stroke="#4564ED" stroke-width="1.5" stroke-linecap="round" stroke-linejoin="round"/>
<path d="M24.74 25.3793C22.96 27.0093 20.6 27.9993 18 27.9993C15.4 27.9993 13.04 27.0093 11.26 25.3793C11.36 24.4393 11.96 23.5193 13.03 22.7993C15.77 20.9793 20.25 20.9793 22.97 22.7993C24.04 23.5193 24.64 24.4393 24.74 25.3793Z" stroke="#4564ED" stroke-width="1.5" stroke-linecap="round" stroke-linejoin="round"/>
<path d="M18 27.9993C23.5228 27.9993 28 23.5221 28 17.9993C28 12.4764 23.5228 7.99927 18 7.99927C12.4772 7.99927 8 12.4764 8 17.9993C8 23.5221 12.4772 27.9993 18 27.9993Z" stroke="#4564ED" stroke-width="1.5" stroke-linecap="round" stroke-linejoin="round"/>
</svg>
