<svg width="24" height="24" viewBox="0 0 24 24" fill="none" xmlns="http://www.w3.org/2000/svg">
<path d="M8.97 14.62V19.97C8.97 21.59 10.79 22.5 12.1 21.69C12.1 21.69 12.9 21.22 13.51 20.78C14.12 20.34 14.42 19.67 14.42 19.06V18.72V14.62C14.42 13.91 14.83 13 15.23 12.5L18.85 9.03L19.38 8.56C19.88 8.06 20.39 7.05 20.39 6.24V4.02C20.39 2.91 19.48 2 18.37 2H5.02C3.91 2 3 2.91 3 4.12V6.44C3 7.05 3.4 7.95 3.91 8.46L8.16 12.5C8.57 13 8.97 13.91 8.97 14.62Z" stroke="#292D32" stroke-width="1.5" stroke-linecap="round" stroke-linejoin="round"/>
</svg>
