<svg width="36" height="36" viewBox="0 0 36 36" fill="none" xmlns="http://www.w3.org/2000/svg">
<circle cx="18" cy="18" r="18" fill="#EFF4FF"/>
<path d="M12 10C13.67 8.75 15.75 8 18 8C23.52 8 28 12.48 28 18C28 23.52 23.52 28 18 28C12.48 28 8 23.52 8 18C8 16.19 8.47999 14.49 9.32999 13.02L18 18" stroke="#4564ED" stroke-width="1.5" stroke-miterlimit="10" stroke-linecap="round" stroke-linejoin="round"/>
<path d="M12.83 14.96C12.3 15.85 12 16.89 12 18C12 21.31 14.69 24 18 24C21.31 24 24 21.31 24 18C24 14.69 21.31 12 18 12C17.09 12 16.22 12.2 15.45 12.57" stroke="#4564ED" stroke-width="1.5" stroke-miterlimit="10" stroke-linecap="round" stroke-linejoin="round"/>
</svg>
