<svg width="36" height="36" viewBox="0 0 36 36" fill="none" xmlns="http://www.w3.org/2000/svg">
<circle cx="18" cy="17.999" r="18" fill="#EFF4FF"/>
<path d="M12 9.99902C13.67 8.74902 15.75 7.99902 18 7.99902C23.52 7.99902 28 12.479 28 17.999C28 23.519 23.52 27.999 18 27.999C12.48 27.999 8 23.519 8 17.999C8 16.189 8.47999 14.489 9.32999 13.019L18 17.999" stroke="#4564ED" stroke-width="1.5" stroke-miterlimit="10" stroke-linecap="round" stroke-linejoin="round"/>
<path d="M12.83 14.959C12.3 15.849 12 16.889 12 17.999C12 21.309 14.69 23.999 18 23.999C21.31 23.999 24 21.309 24 17.999C24 14.689 21.31 11.999 18 11.999C17.09 11.999 16.22 12.199 15.45 12.569" stroke="#4564ED" stroke-width="1.5" stroke-miterlimit="10" stroke-linecap="round" stroke-linejoin="round"/>
</svg>
