<svg width="24" height="24" viewBox="0 0 24 24" fill="none" xmlns="http://www.w3.org/2000/svg">
<path d="M23 22H1" stroke="#969696" stroke-width="1.5" stroke-linecap="round" stroke-linejoin="round"/>
<path d="M8.53736 0.867796L8.53737 0.867823L8.54189 0.86535C8.91441 0.661229 9.28174 0.492045 9.62274 0.451173L9.62274 0.451234L9.63003 0.450236C10.228 0.36833 10.6189 0.656306 10.71 1.00566L10.7119 1.01297L10.7141 1.0202C10.7743 1.2224 10.7261 1.45769 10.5723 1.8018L10.5689 1.80955L10.5657 1.81742C10.2896 2.50578 10.0621 3.21016 9.94738 3.92499C9.71663 5.36321 9.94873 6.75373 10.697 8.07968C11.9496 10.3709 13.9505 11.7348 16.545 12.2217C17.4211 12.3896 18.2835 12.3309 19.1053 12.2258L19.1053 12.226L19.1188 12.2239C19.394 12.1799 19.6684 12.1795 19.9436 12.2228C20.2576 12.2843 20.4128 12.4111 20.4863 12.5336C20.5619 12.6598 20.6003 12.8636 20.5141 13.1733L20.5141 13.1732L20.5123 13.1801C20.4742 13.3263 20.405 13.4646 20.3076 13.6223C20.2634 13.6937 20.2168 13.7641 20.1652 13.8418C20.1591 13.851 20.1529 13.8603 20.1467 13.8697C20.0949 13.9478 20.039 14.0328 19.9846 14.1225C18.4906 15.9398 16.5471 17.1103 14.0883 17.4541L14.0862 17.4544C11.3521 17.8502 8.88763 17.1608 6.77265 15.479L6.77267 15.479L6.76925 15.4763C5.12884 14.1983 4.10786 12.5855 3.64419 10.6233C3.53672 9.95327 3.43786 9.32641 3.43678 8.75502C3.59397 5.25334 5.2783 2.60397 8.53736 0.867796ZM14.2811 16.8703C16.6325 16.4408 18.5616 15.3086 19.9259 13.4143C19.9829 13.3508 20.0359 13.2689 20.0683 13.1755C20.1023 13.0777 20.1574 12.8176 19.9446 12.6135C19.7582 12.4348 19.5338 12.4386 19.4452 12.4401C19.4382 12.4403 19.4321 12.4404 19.4269 12.4404H19.4263H19.4256H19.425H19.4244H19.4237H19.4231H19.4225H19.4219H19.4213H19.4206H19.42H19.4194H19.4188H19.4182H19.4176H19.4169H19.4163H19.4157H19.4151H19.4145H19.4139H19.4133H19.4127H19.4121H19.4115H19.4109H19.4103H19.4097H19.4091H19.4085H19.4079H19.4073H19.4067H19.4061H19.4055H19.4049H19.4043H19.4038H19.4032H19.4026H19.402H19.4014H19.4008H19.4002H19.3997H19.3991H19.3985H19.3979H19.3973H19.3968H19.3962H19.3956H19.3951H19.3945H19.3939H19.3933H19.3928H19.3922H19.3916H19.3911H19.3905H19.3899H19.3894H19.3888H19.3882H19.3877H19.3871H19.3866H19.386H19.3855H19.3849H19.3843H19.3838H19.3832H19.3827H19.3821H19.3816H19.381H19.3805H19.3799H19.3794H19.3788H19.3783H19.3777H19.3772H19.3767H19.3761H19.3756H19.375H19.3745H19.374H19.3734H19.3729H19.3723H19.3718H19.3713H19.3707H19.3702H19.3697H19.3691H19.3686H19.3681H19.3675H19.367H19.3665H19.366H19.3654H19.3649H19.3644H19.3639H19.3633H19.3628H19.3623H19.3618H19.3612H19.3607H19.3602H19.3597H19.3592H19.3586H19.3581H19.3576H19.3571H19.3566H19.3561H19.3555H19.355H19.3545H19.354H19.3535H19.353H19.3525H19.352H19.3514H19.3509H19.3504H19.3499H19.3494H19.3489H19.3484H19.3479H19.3474H19.3469H19.3464H19.3459H19.3454H19.3449H19.3444H19.3439H19.3434H19.3429H19.3424H19.3419H19.3414H19.3409H19.3404H19.3399H19.3394H19.3389H19.3384H19.3379H19.3374H19.3369H19.3364H19.3359H19.3354H19.3349H19.3344H19.334H19.3335H19.333H19.3325H19.332H19.3315H19.331H19.3305H19.33H19.3295H19.3291H19.3286H19.3281H19.3276H19.3271H19.3266H19.3261H19.3257H19.3252H19.3247H19.3242H19.3237H19.3232H19.3227H19.3223H19.3218H19.3213H19.3208H19.3203H19.3199H19.3194H19.3189H19.3184H19.3179H19.3174H19.317H19.3165H19.316H19.3155H19.3151H19.3146H19.3141H19.3136H19.3131H19.3127H19.3122H19.3117H19.3112H19.3108H19.3103H19.3098H19.3093H19.3088H19.3084H19.3079H19.3074H19.3069H19.3065H19.306H19.3055H19.305H19.3046H19.3041H19.3036H19.3031H19.3027H19.3022H19.3017H19.3012H19.3008H19.3003H19.2998H19.2993H19.2989H19.2984H19.2979H19.2975H19.297H19.2965H19.296H19.2956H19.2951H19.2946H19.2941H19.2937H19.2932H19.2927H19.2922H19.2918H19.2913H19.2908H19.2903H19.2899H19.2894H19.2889H19.2885H19.288H19.2875H19.287H19.2866H19.2861H19.2856H19.2851H19.2847H19.2842H19.2837H19.2832H19.2828H19.2823H19.2818H19.2813H19.2809H19.2804H19.2799H19.2794H19.279H19.2785H19.278H19.2775H19.2771H19.2766H19.2761H19.2756H19.2752H19.2747H19.2742H19.2737H19.2733H19.2728H19.2723H19.2718H19.2713H19.2709H19.2704H19.2699H19.2694H19.269H19.2685H19.268H19.2675H19.267H19.2666H19.2661H19.2656H19.2651H19.2646H19.2641H19.2637H19.2632H19.2627H19.2622H19.2617H19.2613H19.2608H19.2603H19.2598H19.2593H19.2588H19.2583H19.2579H19.2574H19.2569H19.2564H19.2559H19.2554H19.2549H19.2544H19.254H19.2535H19.253H19.2525H19.252H19.2515H19.251H19.2505H19.25H19.2495H19.2491H19.2486H19.2481H19.2476H19.2471H19.2466H19.2461H19.2456H19.2451H19.2446H19.2441H19.2436H19.2431H19.2426H19.2421H19.2416H19.2411H19.2406H19.2401H19.2396H19.2391H19.2386H19.2381H19.2376H19.2371H19.2366H19.2361H19.2356H19.2351H19.2346H19.2341H19.2335H19.233H19.2325H19.232H19.2315H19.231H19.2305H19.23H19.2295H19.2289H19.2284H19.2279H19.2274H19.2269H19.2264H19.2258H19.2253H19.2248H19.2243H19.2238H19.2232H19.2227H19.2222H19.2217H19.2212H19.2206H19.2201H19.2196H19.2191H19.2185H19.218H19.2175H19.2169H19.2164H19.2159H19.2154H19.2148H19.2143H19.2138H19.2132H19.2127H19.2121H19.2116H19.2111H19.2105H19.21H19.2095H19.2089H19.2084H19.2078H19.2073H19.2067H19.2062H19.2056H19.2051H19.2046H19.204H19.2035H19.2029H19.2024H19.2018H19.2013H19.2007H19.2001H19.1996H19.199H19.1985H19.1979H19.1974H19.1968H19.1962H19.1957H19.1951H19.1945H19.194H19.1934H19.1929H19.1923H19.1917H19.1911H19.1906H19.19H19.1894H19.1889H19.1883H19.1877H19.1871H19.1866H19.186H19.1854H19.1848H19.1842H19.1837H19.1831H19.1825H19.1819H19.1813H19.1807H19.1801H19.1796H19.179H19.1784H19.1778H19.1772H19.1766H19.176H19.1754H19.1748H19.1742H19.1736H19.173H19.1724H19.1718H19.1712H19.1706H19.17H19.1694H19.1688H19.1682H19.1675H19.1669H19.1663H19.1657H19.1651H19.1645H19.1638H19.1632H19.1626H19.162H19.1614H19.1607H19.1601H19.1595H19.1589H19.1582H19.1576H19.106L19.0558 12.4524C18.2607 12.643 17.4067 12.6447 16.5958 12.4989L16.5875 12.4974L16.5792 12.4962C14.4718 12.2005 12.7396 11.2694 11.412 9.70265L11.4115 9.70198C9.82596 7.83834 9.26927 5.74873 9.67792 3.39759C9.77639 2.83104 9.97263 2.25769 10.1853 1.64578C10.1873 1.64241 10.1891 1.63954 10.1913 1.63619C10.1943 1.6314 10.1979 1.62564 10.2038 1.61604C10.2204 1.5892 10.2546 1.53393 10.2805 1.46771C10.3076 1.39832 10.3368 1.29004 10.3157 1.16092C10.2936 1.02527 10.2246 0.917337 10.1423 0.838449L10.0919 0.790076L10.0289 0.75986C9.86058 0.679169 9.69862 0.686817 9.57665 0.716055C9.47605 0.740173 9.38461 0.784253 9.33705 0.807185C9.33674 0.807333 9.33643 0.80748 9.33613 0.807627C5.68253 2.37495 3.39761 5.95722 3.96819 9.84189L3.96819 9.8419L3.96858 9.84446C4.59574 13.9448 8.40031 17.0335 12.6434 16.9807H12.6445H12.6457H12.647H12.6483H12.6495H12.6508H12.6521H12.6533H12.6546H12.6558H12.6571H12.6584H12.6596H12.6609H12.6622H12.6634H12.6647H12.6659H12.6672H12.6685H12.6697H12.671H12.6723H12.6735H12.6748H12.676H12.6773H12.6786H12.6798H12.6811H12.6824H12.6836H12.6849H12.6861H12.6874H12.6887H12.6899H12.6912H12.6925H12.6937H12.695H12.6962H12.6975H12.6988H12.7H12.7013H12.7026H12.7038H12.7051H12.7063H12.7076H12.7089H12.7101H12.7114H12.7127H12.7139H12.7152H12.7164H12.7177H12.719H12.7202H12.7215H12.7227H12.724H12.7253H12.7265H12.7278H12.7291H12.7303H12.7316H12.7328H12.7341H12.7354H12.7366H12.7379H12.7392H12.7404H12.7417H12.7429H12.7442H12.7455H12.7467H12.748H12.7493H12.7505H12.7518H12.753H12.7543H12.7556H12.7568H12.7581H12.7594H12.7606H12.7619H12.7631H12.7644H12.7657H12.7669H12.7682H12.7695H12.7707H12.772H12.7732H12.7745H12.7758H12.777H12.7783H12.7796H12.7808H12.7821H12.7833H12.7846H12.7859H12.7871H12.7884H12.7897H12.7909H12.7922H12.7934H12.7947H12.796H12.7972H12.7985H12.7998H12.801H12.8023H12.8035H12.8048H12.8061H12.8073H12.8086H12.8098H12.8111H12.8124H12.8136H12.8149H12.8162H12.8174H12.8187H12.8199H12.8212H12.8225H12.8237H12.825H12.8263H12.8275H12.8288H12.83H12.8313H12.8326H12.8338H12.8351H12.8364H12.8376H12.8389H12.8401H12.8414H12.8427H12.8439H12.8452H12.8465H12.8477H12.849H12.8502H12.8515H12.8528H12.854H12.8553H12.8566H12.8578H12.8591H12.8603H12.8616H12.8629H12.8641H12.8654H12.8667H12.8679H12.8692H12.8704H12.8717H12.873H12.8742H12.8755H12.8768H12.878H12.8793H12.8805H12.8818H12.8831H12.8843H12.8856H12.8868H12.8881H12.8894H12.8906H12.8919H12.8932H12.8944H12.8957H12.8969H12.8982H12.8995H12.9007H12.902H12.9033H12.9045H12.9058H12.907H12.9083H12.9096H12.9108H12.9121H12.9134H12.9146H12.9159H12.9171H12.9184H12.9197H12.9209H12.9222H12.9235H12.9247H12.926H12.9272H12.9285H12.9298H12.931H12.9323H12.9336H12.9348H12.9361H12.9373H12.9386H12.9399H12.9411H12.9424H12.9437H12.9449H12.9462H12.9474H12.9487H12.95H12.9512H12.9525H12.9538H12.955H12.9563H12.9575H12.9588H12.9601H12.9613H12.9626H12.9639H12.9651H12.9664H12.9676H12.9689H12.9702H12.9714H12.9727H12.9739H12.9752H12.9765H12.9777H12.979H12.9803H12.9815H12.9828H12.984H12.9853H12.9866H12.9878H12.9891H12.9904H12.9916H12.9929H12.9941H12.9954H12.9967H12.9979H12.9992H13.0005H13.0017H13.003H13.0042H13.0055H13.0068H13.008H13.0093H13.0106H13.0118H13.0131H13.0143H13.0156H13.0169H13.0181H13.0194H13.0207H13.0219H13.0232H13.0244H13.0257H13.027H13.0282H13.0295H13.0308H13.032H13.0333H13.0345H13.0358H13.0371H13.0383H13.0396H13.0409H13.0421H13.0434H13.0446H13.0459H13.0472H13.0484H13.0497H13.051H13.0522H13.0535H13.0547H13.056H13.0573H13.0585H13.0598H13.061H13.0623H13.0636H13.0648H13.0661H13.0674H13.0686H13.0699H13.0711H13.0724H13.0737H13.0749H13.0762H13.0775H13.0787H13.08H13.0812H13.0825H13.0838H13.085H13.0863H13.0876H13.0888H13.0901H13.0913H13.0926H13.0939H13.0951H13.0964H13.0977H13.0989H13.1002H13.1014H13.1027H13.104H13.1052H13.1065H13.1078H13.109H13.1103H13.1115H13.1128H13.1141H13.1153H13.1166H13.1179H13.1191H13.1204H13.1216H13.1229H13.1242H13.1254H13.1267H13.128H13.1292H13.1305H13.1317H13.133H13.1343H13.1355H13.1368H13.1381H13.1393H13.1406H13.1418H13.1431H13.1444H13.1456H13.1469H13.1481H13.1494H13.1507H13.1519H13.1532H13.1545H13.1557H13.157H13.1582H13.1595H13.1608H13.162H13.1633H13.1646H13.1658H13.1671H13.1683H13.1696H13.1709H13.1721H13.1734H13.1747H13.1759H13.1772H13.1784H13.1797H13.181H13.1822H13.1835H13.1848H13.186H13.1873H13.1885H13.1898H13.1911H13.1923H13.1936H13.1949H13.1961H13.1974H13.1986H13.1999H13.2012H13.2024H13.2037H13.205H13.2062H13.2075H13.2087H13.21H13.2113H13.2125H13.2138H13.2151H13.2163H13.2176H13.2188H13.2201H13.2214H13.2226H13.2239H13.2251H13.2264H13.2277H13.2289H13.2302H13.2315H13.2327H13.234H13.2352H13.2365H13.2378H13.239H13.2403H13.2416H13.2428H13.2441H13.2453H13.2466H13.2479H13.2491H13.2504H13.2517H13.2529H13.2542H13.2554H13.2567H13.258H13.2592H13.2605H13.2618H13.263H13.2643H13.2655H13.2668H13.2681H13.2693H13.2706H13.2719H13.2731H13.2744H13.2756H13.2769H13.2782H13.2794H13.2807H13.282H13.2832H13.2845H13.2857H13.287C13.607 16.9807 13.8847 16.9352 14.1546 16.8909C14.1937 16.8845 14.2326 16.8781 14.2715 16.8719L14.2715 16.872L14.2811 16.8703Z" fill="#969696" stroke="#969696" stroke-width="0.873535"/>
</svg>
